<svg xmlns="http://www.w3.org/2000/svg" xmlns:xlink="http://www.w3.org/1999/xlink" width="183.255" height="48.101" viewBox="0 0 183.255 48.101"><defs><clipPath id="clip-path"><path id="Path_11" data-name="Path 11" d="M115.675,199.429v-13.02h4.8v3.02H118.7v9.44a18.272,18.272,0,1,1-11.341,0v-9.44h-1.779v-3.02h4.8v13.622a14.891,14.891,0,1,0,5.3,0Z" transform="translate(-94.755 -186.409)" fill="none"></path></clipPath><linearGradient id="linear-gradient" x1="0.5" y1="0.997" x2="0.5" y2="-0.04" gradientUnits="objectBoundingBox"><stop offset="0" stop-color="#3fa025"></stop><stop offset="1" stop-color="#95d311"></stop></linearGradient><clipPath id="clip-path-2"><path id="Path_18" data-name="Path 18" d="M127.918,214.686a16.549,16.549,0,1,1-33.078,0h-.019q-.065.767-.066,1.554A18.272,18.272,0,1,0,118.7,198.869v-9.44h1.779v-3.02h-4.8v13.622a14.9,14.9,0,0,1,12.242,14.656" transform="translate(-94.755 -186.409)" fill="none" clip-rule="evenodd"></path></clipPath><linearGradient id="linear-gradient-2" x1="0.5" y1="-0.197" x2="0.5" y2="1.068" xlink:href="#linear-gradient"></linearGradient></defs><g id="logo" transform="translate(-342.745 -74.185)"><g id="path" transform="translate(247.99 -112.224)"><path id="Path_10" data-name="Path 10" d="M107.717,208.082l.179.308.177.31h-.712l.179-.31Zm4.9,8.291h-2l.533-.925.362-.624.173-.3.533.924.533.925Zm-.715-6.14-.131,1.018-.15,1.177-.945-.718-.943-.718,1.094-.459.956-.4.139-.058Zm5.128,3.787h-.848l.2-.344.158-.273.356-.615.356.615.356.617Zm-19.116-6.192a13.705,13.705,0,0,0,27.188-.563,8.706,8.706,0,0,1-2.145,1.6c-7.807,4.121-9.985-4.382-17.349-4.382A10.516,10.516,0,0,0,97.918,207.829Z" transform="translate(1.549 8.853)" fill="#024e97" fill-rule="evenodd"></path><g id="Group_17" data-name="Group 17" transform="translate(94.755 186.409)" clip-path="url(#clip-path)"><rect id="Rectangle_6" data-name="Rectangle 6" width="36.542" height="48.101" transform="translate(0.001 0)" fill="url(#linear-gradient)"></rect></g><path id="Path_12" data-name="Path 12" d="M106.029,217.31c-.375-4.328-1.338-8.409-8.111-10.582a13.724,13.724,0,0,0,8.111,10.582" transform="translate(1.549 9.953)" fill="#024e97" fill-rule="evenodd"></path><path id="Path_13" data-name="Path 13" d="M97.918,206.728c6.773,2.174,7.735,6.254,8.111,10.582a13.629,13.629,0,0,0,3.7,1.015c-2.005-5.214-2.7-11.153-11.809-11.6" transform="translate(1.549 9.953)" fill="#045da3" fill-rule="evenodd"></path><path id="Path_14" data-name="Path 14" d="M97.918,206.857c9.1.444,9.8,6.382,11.809,11.6a13.841,13.841,0,0,0,1.751.11,13.691,13.691,0,0,0,3.647-.49,14.754,14.754,0,0,1-2.5-2.673h-2l.533-.925.362-.624c-2.9-4.245-5.436-8.76-13.6-6.995" transform="translate(1.549 9.824)" fill="#066daf" fill-rule="evenodd"></path><path id="Path_15" data-name="Path 15" d="M107.717,207.513l.179.308.177.31h-.712l.179-.31Zm-9.8-.253c8.164-1.765,10.7,2.75,13.6,6.995l.173-.3.533.924.533.925h-.137a14.755,14.755,0,0,0,2.5,2.673,13.682,13.682,0,0,0,6.533-4.04c-.258.01-.52.012-.781,0a9.3,9.3,0,0,1-3.842-.986h-.848l.2-.344a29.131,29.131,0,0,1-4.478-3.443l-.131,1.018-.15,1.177-.945-.718-.943-.718,1.094-.459.956-.4C108.266,206.524,104.66,203.795,97.918,207.26Z" transform="translate(1.549 9.421)" fill="#097ebd" fill-rule="evenodd"></path><path id="Path_16" data-name="Path 16" d="M97.918,207.829c6.742-3.465,10.348-.736,13.869,2.3l.139-.058-.019.159a29.131,29.131,0,0,0,4.478,3.443l.158-.273.356-.615.356.615.356.617h-.577a9.3,9.3,0,0,0,3.842.986c.261.01.523.009.781,0a13.649,13.649,0,0,0,3.449-7.74,8.706,8.706,0,0,1-2.145,1.6c-7.807,4.121-9.985-4.382-17.349-4.382a10.516,10.516,0,0,0-7.694,3.348" transform="translate(1.549 8.853)" fill="#0d9ed7" fill-rule="evenodd"></path><path id="Path_17" data-name="Path 17" d="M115.087,204.756l-.256.769-.258.769-.538-.606-.538-.608.8-.162Zm1.5,5.055.268.462.267.463h-1.068l.268-.463Zm-6.4-6.29v2.019l-.873-.505-.875-.505.875-.5Zm1.47,3.287.514.353.513.355-.562.267-.563.268.049-.621Zm5.687-3.723.173.3.173.3H117l.173-.3Zm-4.331-2.409-.092.465-.094.465-.356-.313-.356-.314.45-.152Zm-9.84,1.256.958.554.961.553-.961.554-.958.554v-2.215Zm14.535,4.2.645.612.647.611-.852.255-.854.253L117.5,207Z" transform="translate(4.123 6.988)" fill="#11b8ec" fill-rule="evenodd"></path><g id="Group_19" data-name="Group 19" transform="translate(94.755 186.409)" clip-path="url(#clip-path-2)"><rect id="Rectangle_7" data-name="Rectangle 7" width="36.666" height="48.101" transform="translate(-0.123 0)" fill="url(#linear-gradient-2)"></rect></g></g><text id="Health_and_Medical" data-name="Health and Medical" transform="translate(391 116)" fill="#50545e" font-size="11" font-family="Roboto-Bold, Roboto" font-weight="700"><tspan x="0" y="0">HEALTH AND MEDICAL</tspan></text><text id="Manlab." transform="translate(390 101)" fill="#041c5e" font-size="26" font-family="WorkSans-ExtraBold, Work Sans" font-weight="800"><tspan x="0" y="0">Manlab.</tspan></text></g></svg>